# xmcd
#
# Track frame offsets:
# 150
# 19625
# 53375
# 72439
# 90104
# 104520
# 130870
# 146234
# 163512
# 181957
# 226926
#
# Disc length: 3523 seconds
#
#
# Revision: 0
# Processed by: cddbd v1.5.1PL0 Copyright (c) Steve Scherf et al.
# Submitted via: FreeRIP 2.80 
#
DISCID=860dc10b
DTITLE=HARRY KAPELIARIS - JOURNEY TO LIGHT
DYEAR=2005
DGENRE=Freestyle
TTITLE0=JOURNEY TO LIGHT
TTITLE1=ENTROPY
TTITLE2=HYPNOSIS
TTITLE3=RIDE ON
TTITLE4=FRIDAY MORNING
TTITLE5=NICE NINE
TTITLE6=FUSE BLUES
TTITLE7=THE LIZARD
TTITLE8=BLUE DAY
TTITLE9=CROSSROADS
TTITLE10=BONUS
EXTD=
EXTT0=
EXTT1=
EXTT2=
EXTT3=
EXTT4=
EXTT5=
EXTT6=
EXTT7=
EXTT8=
EXTT9=
EXTT10=
PLAYORDER=
